<?xml version="1.0" encoding="UTF-8"?>
<svg id="Calque" xmlns="http://www.w3.org/2000/svg" version="1.1" viewBox="0 0 244.2 219.3">
  <!-- Generator: Adobe Illustrator 30.3.0, SVG Export Plug-In . SVG Version: 2.1.3 Build 182)  -->
  <defs>
    <style>
      .st0 {
        fill: #1d1d1b;
      }
    </style>
  </defs>
  <g id="_x3C_Logo_x2F__x3E_">
    <g>
      <path class="st0" d="M12.5,125c-1.7,0-3.1-.3-4.1-1-.6-.4-1.3-1.1-2-2.1v2.6s-5.3,0-5.3,0v-27.8s5.4,0,5.4,0v9.9c.7-1,1.4-1.7,2.2-2.2,1-.6,2.2-.9,3.7-.9,2.7,0,4.8,1,6.4,2.9s2.3,4.5,2.3,7.6c0,3.2-.8,5.8-2.3,8-1.5,2.1-3.6,3.2-6.3,3.2ZM15.4,114.5c0-1.5-.2-2.7-.6-3.6-.7-1.8-2-2.7-4-2.7s-3.3.9-4,2.7c-.4.9-.6,2.2-.6,3.7s.4,3.2,1.2,4.4c.8,1.2,2,1.7,3.6,1.7,1.4,0,2.5-.6,3.2-1.7.8-1.1,1.2-2.6,1.2-4.4Z"/>
      <path class="st0" d="M35.9,108.9c-2.2,0-3.6.7-4.4,2.1-.4.8-.6,2-.6,3.7v9.8s-5.4,0-5.4,0v-20.6s5.1,0,5.1,0v3.6c.8-1.4,1.6-2.3,2.2-2.8,1-.8,2.3-1.3,3.9-1.3s.2,0,.3,0c0,0,.2,0,.5,0v5.5c-.3,0-.6,0-.9,0-.3,0-.5,0-.6,0Z"/>
      <path class="st0" d="M57.5,106.5c1.7,2.2,2.6,4.8,2.6,7.7,0,3-.9,5.6-2.6,7.8-1.7,2.1-4.4,3.2-7.9,3.2-3.5,0-6.2-1.1-7.9-3.2-1.7-2.1-2.6-4.7-2.6-7.8s.9-5.5,2.6-7.7c1.7-2.2,4.4-3.3,7.9-3.3,3.5,0,6.2,1.1,7.9,3.3ZM49.5,107.8c-1.6,0-2.8.6-3.6,1.7-.8,1.1-1.3,2.7-1.3,4.8s.4,3.7,1.3,4.8c.9,1.1,2.1,1.7,3.6,1.7s2.8-.6,3.6-1.7c.8-1.1,1.3-2.7,1.3-4.8s-.4-3.7-1.3-4.8c-.8-1.1-2.1-1.7-3.6-1.7Z"/>
      <path class="st0" d="M83,124.5h-6.5s-4.9-8.8-4.9-8.8l-2.2,2.3v6.5s-5.3,0-5.3,0v-27.7s5.3,0,5.3,0v15s6.7-7.7,6.7-7.7h6.7s-7.2,7.9-7.2,7.9l7.5,12.6Z"/>
      <path class="st0" d="M103.4,118.4c-.1,1.2-.8,2.5-1.9,3.7-1.8,2-4.2,3-7.4,3-2.6,0-4.9-.8-6.9-2.5-2-1.7-3-4.4-3-8.2,0-3.6.9-6.3,2.7-8.2,1.8-1.9,4.2-2.9,7-2.9s3.3.3,4.6,1c1.4.6,2.5,1.7,3.4,3,.8,1.2,1.3,2.6,1.6,4.2.1.9.2,2.3.2,4.1h-14.1c0,2.1.7,3.5,1.9,4.3.7.5,1.6.8,2.7.8s2-.3,2.7-.9c.4-.3.7-.8,1-1.4h5.5ZM98,112.1c0-1.4-.5-2.5-1.3-3.2-.8-.7-1.7-1.1-2.9-1.1-1.2,0-2.2.4-2.9,1.2-.7.8-1.1,1.8-1.3,3.2h8.4Z"/>
      <path class="st0" d="M117.1,107.9c-1.8,0-3.1.8-3.8,2.3-.4.8-.5,1.9-.5,3.1v11.1s-5.4,0-5.4,0v-20.5s5.2,0,5.2,0v3c.7-1.1,1.3-1.8,2-2.3,1.1-.8,2.5-1.2,4.2-1.2s3.9.6,5.2,1.7c1.4,1.1,2,3,2,5.5v13.9s-5.5,0-5.5,0v-12.5c0-1.1-.1-1.9-.4-2.5-.5-1.1-1.5-1.6-3-1.6Z"/>
      <path class="st0" d="M20.1,128.6v27.8s-5.2,0-5.2,0v-2.9c-.8,1.2-1.6,2.1-2.6,2.7-1,.6-2.2.8-3.7.8-2.4,0-4.4-1-6.1-2.9C.8,152.1,0,149.6,0,146.6c0-3.5.8-6.3,2.4-8.3,1.6-2,3.8-3,6.5-3s2.4.3,3.3.8c1,.5,1.8,1.3,2.4,2.3v-9.8s5.5,0,5.5,0ZM5.6,146.2c0,1.9.4,3.4,1.1,4.6.7,1.1,1.9,1.7,3.4,1.7s2.7-.6,3.5-1.7,1.2-2.6,1.2-4.4-.6-4.3-1.9-5.4c-.8-.7-1.7-1-2.7-1-1.6,0-2.7.6-3.5,1.8-.7,1.2-1.1,2.7-1.1,4.4Z"/>
      <path class="st0" d="M30.9,128.3v5s-5.5,0-5.5,0v-5s5.5,0,5.5,0ZM30.9,135.8v20.6s-5.5,0-5.5,0v-20.6s5.5,0,5.5,0Z"/>
      <path class="st0" d="M50.2,136.7c1.6,1,2.5,2.8,2.8,5.3h-5.4c0-.7-.3-1.2-.6-1.6-.6-.7-1.6-1.1-3-1.1s-2,.2-2.5.5c-.5.4-.7.8-.7,1.3s.3,1.1.8,1.3c.5.3,2.4.8,5.6,1.5,2.1.5,3.7,1.3,4.8,2.3,1.1,1,1.6,2.3,1.6,3.9,0,2-.8,3.7-2.3,5-1.5,1.3-3.9,1.9-7,1.9s-5.6-.7-7.2-2c-1.5-1.4-2.3-3.1-2.3-5.2h5.5c.1,1,.4,1.6.7,2,.7.7,1.9,1.1,3.7,1.1s1.9-.2,2.5-.5c.6-.3.9-.8.9-1.4s-.3-1.1-.8-1.4c-.5-.3-2.4-.9-5.6-1.6-2.3-.6-4-1.3-4.9-2.2-1-.9-1.4-2.1-1.4-3.7s.7-3.5,2.2-4.9c1.5-1.4,3.6-2.1,6.3-2.1,2.6,0,4.7.5,6.3,1.5Z"/>
      <path class="st0" d="M67.1,152.5v4s-2.5,0-2.5,0c-2.5,0-4.3-.4-5.2-1.3-.6-.6-.9-1.6-.9-2.9v-12.7s-2.9,0-2.9,0v-3.8s2.9,0,2.9,0v-5.7s5.3,0,5.3,0v5.7s3.3,0,3.3,0v3.8s-3.3,0-3.3,0v10.9c0,.8.1,1.4.3,1.6.2.2.9.3,2,.3s.3,0,.5,0c.2,0,.4,0,.5,0Z"/>
      <path class="st0" d="M81.1,140.7c-2.2,0-3.6.7-4.4,2.1-.4.8-.6,2-.6,3.7v9.8s-5.4,0-5.4,0v-20.6s5.1,0,5.1,0v3.6c.8-1.4,1.6-2.3,2.2-2.8,1-.8,2.3-1.3,3.9-1.3.1,0,.2,0,.3,0,0,0,.2,0,.5,0v5.5c-.3,0-.6,0-.9,0-.3,0-.5,0-.6,0Z"/>
      <path class="st0" d="M91.4,128.3v5s-5.5,0-5.5,0v-5s5.5,0,5.5,0ZM91.4,135.8v20.6s-5.5,0-5.5,0v-20.6s5.5,0,5.5,0Z"/>
      <path class="st0" d="M114.6,143.1h-5.5c-.1-.8-.4-1.5-.8-2.1-.6-.8-1.5-1.2-2.8-1.2-1.8,0-3.1.9-3.7,2.7-.4,1-.5,2.2-.5,3.8s.2,2.7.5,3.6c.6,1.7,1.9,2.6,3.6,2.6,1.3,0,2.2-.3,2.7-1,.5-.7.8-1.6,1-2.6h5.5c-.1,1.6-.7,3.2-1.8,4.6-1.7,2.4-4.2,3.5-7.5,3.5-3.3,0-5.7-1-7.3-2.9-1.6-2-2.3-4.5-2.3-7.6s.9-6.3,2.6-8.3c1.7-2,4.1-2.9,7.1-2.9,2.6,0,4.7.6,6.3,1.7,1.6,1.2,2.6,3.2,2.9,6.1Z"/>
      <path class="st0" d="M127.9,152.5v4s-2.5,0-2.5,0c-2.5,0-4.3-.4-5.2-1.3-.6-.6-.9-1.6-.9-2.9v-12.7s-2.9,0-2.9,0v-3.8s2.9,0,2.9,0v-5.7s5.3,0,5.3,0v5.7s3.3,0,3.3,0v3.8s-3.3,0-3.3,0v10.9c0,.8.1,1.4.3,1.6.2.2.9.3,2,.3s.3,0,.5,0c.2,0,.4,0,.5,0Z"/>
    </g>
    <polygon class="st0" points="182.7 43.7 182.7 0 25.3 0 25.3 99.8 30.9 99.8 30.8 5.6 177.2 5.5 177.2 49.2 237.8 49.2 237.9 213.7 74.4 213.8 74.4 184.4 30.9 184.4 30.9 160.3 25.3 160.3 25.3 190 68.9 190 68.9 219.3 244.2 219.3 244.2 43.6 182.7 43.7"/>
  </g>
</svg>